<?xml version="1.0" standalone="no"?>
<!DOCTYPE svg PUBLIC "-//W3C//DTD SVG 20010904//EN"
 "http://www.w3.org/TR/2001/REC-SVG-20010904/DTD/svg10.dtd">
<svg version="1.0" xmlns="http://www.w3.org/2000/svg"
 width="959.000000pt" height="366.000000pt" viewBox="0 0 959.000000 366.000000"
 preserveAspectRatio="xMidYMid meet">

<g transform="translate(0.000000,366.000000) scale(0.100000,-0.100000)"
fill="#ffffff" stroke="none">
<g fill="#dc2626">
<path d="M1405 3096 c-82 -40 -312 -151 -510 -246 -198 -95 -366 -180 -372
-188 -19 -24 -18 -855 1 -972 35 -214 128 -392 315 -600 99 -111 675 -624 719
-641 32 -12 35 -10 222 156 543 483 679 630 776 840 77 166 78 174 82 704 2
261 1 485 -3 498 -4 19 -27 34 -98 67 -51 24 -256 123 -457 221 -451 220 -485
235 -507 234 -10 0 -85 -33 -168 -73z m407 -224 c134 -65 337 -163 451 -217
l208 -100 -4 -430 c-4 -461 -3 -454 -60 -593 -73 -177 -211 -326 -743 -799
l-91 -81 -195 171 c-293 258 -343 304 -425 397 -140 157 -225 312 -259 468
-10 51 -14 162 -14 468 l0 401 128 62 c70 35 260 126 422 204 162 77 304 146
315 154 11 7 20 13 22 13 1 0 111 -53 245 -118z"/>
<path d="M1501 2514 c-19 -25 -21 -40 -21 -200 l0 -174 -110 0 c-107 0 -110 1
-155 32 -92 65 -214 43 -280 -51 -26 -37 -30 -51 -30 -109 0 -55 5 -75 28
-115 16 -26 39 -53 51 -59 23 -10 24 -15 29 -172 8 -248 42 -332 197 -486 107
-106 323 -293 344 -298 8 -2 38 20 67 47 l54 51 -55 52 c-30 29 -115 106 -188
172 -72 65 -145 134 -161 155 -70 89 -91 170 -91 348 l0 112 29 16 c38 19 79
73 87 113 l7 32 88 0 89 0 0 -115 c0 -110 1 -117 25 -140 l24 -25 341 0 341 0
25 25 25 25 -3 376 -3 376 -24 19 c-22 18 -43 19 -366 19 l-344 0 -20 -26z
m599 -394 l0 -260 -230 0 -230 0 0 260 0 260 230 0 230 0 0 -260z m-960 -96
c15 -39 -4 -66 -43 -62 -24 2 -34 10 -41 30 -12 35 6 58 45 58 22 0 32 -6 39
-26z"/>
</g>
<path d="M4993 2629 c-74 -14 -171 -67 -228 -125 -110 -109 -158 -263 -136
-430 22 -163 116 -289 267 -361 69 -33 87 -37 178 -41 120 -5 186 7 273 50
180 88 288 304 253 506 -48 286 -311 460 -607 401z m250 -199 c58 -29 112 -86
141 -149 30 -67 29 -196 -2 -267 -48 -106 -147 -169 -268 -168 -120 0 -217 63
-268 173 -16 36 -21 66 -21 136 0 78 4 97 28 147 32 65 90 120 151 142 63 23
179 17 239 -14z"/>
<path d="M6083 2626 c-122 -30 -241 -123 -296 -232 -59 -117 -73 -282 -33
-410 25 -80 88 -168 156 -218 89 -66 155 -88 281 -94 161 -7 254 26 352 124
44 44 85 115 102 172 6 22 5 22 -94 22 -100 0 -101 0 -115 -29 -55 -106 -222
-151 -340 -90 -101 52 -155 137 -163 260 -7 99 15 172 70 235 61 70 106 89
207 89 76 0 90 -3 134 -29 29 -17 58 -45 75 -72 l26 -43 98 -1 c111 0 109 -2
76 85 -42 112 -166 210 -298 235 -71 13 -173 11 -238 -4z"/>
<path d="M7894 2626 c-117 -38 -201 -138 -239 -283 -21 -79 -21 -289 -1 -377
29 -125 95 -214 195 -263 50 -25 67 -28 161 -28 95 0 111 3 162 28 100 49 170
149 198 282 16 76 16 268 0 337 -31 133 -114 244 -218 291 -59 26 -197 33
-258 13z m197 -189 c77 -52 105 -147 97 -335 -4 -92 -8 -118 -29 -159 -35 -66
-77 -93 -148 -93 -136 0 -187 98 -179 341 3 107 7 132 28 174 33 66 77 95 145
95 38 0 61 -6 86 -23z"/>
<path d="M8735 2627 c-103 -35 -165 -94 -191 -183 -24 -83 -7 -151 51 -213
l42 -45 -53 -51 c-61 -60 -79 -109 -71 -200 12 -156 129 -254 314 -263 177 -8
306 59 353 186 42 111 4 241 -89 302 -25 16 -41 30 -34 30 22 0 76 54 94 95
22 47 24 124 5 178 -23 64 -64 107 -133 140 -54 25 -80 30 -157 33 -58 3 -105
-1 -131 -9z m159 -148 c59 -16 96 -58 96 -109 0 -84 -50 -131 -141 -132 -143
-1 -186 170 -58 234 40 21 51 22 103 7z m39 -393 c48 -20 69 -50 75 -104 8
-85 -33 -133 -126 -148 -133 -21 -238 119 -160 214 42 50 141 68 211 38z"/>
<path d="M3070 2160 l0 -471 258 3 257 3 57 28 c100 49 148 126 148 236 0 86
-49 169 -124 208 l-28 15 31 19 c17 10 45 40 61 66 75 118 7 285 -139 340 -37
13 -91 17 -283 21 l-238 4 0 -472z m453 289 c75 -35 73 -154 -3 -194 -27 -14
-118 -21 -227 -17 l-43 2 0 116 0 117 123 -5 c70 -3 134 -11 150 -19z m34
-385 c15 -11 34 -39 42 -61 13 -36 12 -43 -5 -79 -30 -62 -66 -74 -216 -74
l-128 0 0 121 0 121 139 -4 c123 -3 143 -6 168 -24z"/>
<path d="M3940 2160 l0 -470 315 0 315 0 0 85 0 85 -220 0 -220 0 0 385 0 385
-95 0 -95 0 0 -470z"/>
<path d="M6790 2160 l0 -470 95 0 95 0 2 215 3 216 170 -213 171 -213 122 -5
c67 -3 122 -3 122 0 -1 3 -90 113 -199 245 l-198 239 73 86 c174 205 304 360
304 365 0 3 -51 5 -113 5 l-112 0 -170 -208 -170 -209 -3 209 -2 208 -95 0
-95 0 0 -470z"/>
<path d="M3163 1349 c-76 -23 -110 -123 -59 -174 13 -13 50 -31 82 -40 101
-29 128 -60 86 -98 -30 -27 -80 -22 -112 13 -23 25 -33 29 -59 24 -36 -8 -36
-6 -15 -49 22 -48 71 -68 150 -63 73 5 108 29 124 86 19 71 -21 117 -126 143
-52 12 -84 34 -84 55 0 24 31 44 70 44 31 0 43 -5 56 -25 13 -19 23 -24 50
-22 19 1 34 6 34 10 0 19 -31 65 -53 80 -31 20 -104 28 -144 16z"/>
<path d="M4105 1355 c-5 -2 -22 -6 -37 -9 -37 -8 -98 -63 -114 -103 -17 -39
-18 -131 -3 -170 13 -34 55 -80 91 -99 35 -18 131 -18 167 1 37 19 81 71 81
96 0 28 -65 27 -80 -1 -6 -11 -25 -27 -42 -36 -73 -38 -158 27 -158 121 0 77
52 135 120 135 23 0 42 -10 67 -35 34 -34 93 -50 93 -25 0 19 -27 64 -52 87
-30 28 -102 48 -133 38z"/>
<path d="M8957 1346 c-52 -19 -65 -32 -77 -76 -19 -71 7 -103 114 -140 71 -24
86 -36 86 -66 0 -61 -121 -55 -142 7 -6 19 -68 1 -68 -20 0 -50 67 -91 150
-91 62 0 105 20 125 60 40 78 5 133 -112 170 -65 21 -79 29 -81 48 -5 34 15
52 59 52 28 0 44 -7 62 -26 20 -22 29 -24 55 -17 l32 8 -20 32 c-37 61 -112
85 -183 59z"/>
<path d="M3520 1155 l0 -195 130 0 130 0 0 35 0 35 -95 0 -95 0 0 50 0 50 80
0 80 0 0 30 0 30 -80 0 -80 0 0 50 0 50 94 0 93 0 -1 30 -1 30 -127 0 -128 0
0 -195z"/>
<path d="M4440 1215 c0 -162 12 -201 69 -233 51 -29 133 -30 178 -2 55 33 63
63 66 225 l2 145 -37 0 -38 0 0 -140 c0 -136 -1 -142 -25 -165 -31 -32 -75
-32 -112 -1 -28 24 -28 25 -31 165 l-4 141 -34 0 -34 0 0 -135z"/>
<path d="M4930 1154 l0 -195 37 3 36 3 -2 73 -2 73 32 -3 c29 -3 38 -12 77
-75 42 -71 45 -73 83 -73 21 0 39 3 39 6 0 4 -20 39 -45 78 -49 79 -52 86 -32
86 22 0 55 43 62 82 9 49 -16 102 -60 122 -23 11 -62 16 -129 16 l-96 0 0
-196z m192 119 c22 -20 23 -61 1 -85 -12 -13 -30 -18 -68 -18 l-52 0 -2 60 -2
60 52 0 c35 0 59 -6 71 -17z"/>
<path d="M5384 1158 l1 -193 38 -3 37 -3 0 195 0 196 -38 0 -39 0 1 -192z"/>
<path d="M5610 1320 c0 -28 1 -29 58 -32 l57 -3 3 -162 2 -163 35 0 35 0 0
165 0 165 60 0 60 0 0 30 0 30 -155 0 -155 0 0 -30z"/>
<path d="M6101 1231 c69 -119 69 -120 69 -195 l0 -76 35 0 35 0 0 83 0 82 64
110 64 110 -30 3 c-46 5 -55 -2 -93 -78 -19 -38 -39 -70 -43 -70 -4 0 -24 34
-45 75 l-37 75 -44 0 -44 0 69 -119z"/>
<path d="M6805 1163 c-39 -102 -71 -190 -73 -195 -2 -4 14 -8 35 -8 37 0 40 2
60 50 l22 51 73 -3 72 -3 17 -45 c15 -41 20 -45 53 -48 20 -2 36 1 36 7 0 5
-32 93 -72 195 l-71 186 -41 0 -41 0 -70 -187z m140 34 c14 -37 25 -70 25 -72
0 -3 -24 -5 -53 -5 l-54 0 26 74 c14 41 27 74 28 72 1 -1 14 -32 28 -69z"/>
<path d="M7230 1210 c0 -161 10 -198 62 -230 44 -27 140 -28 184 -1 53 32 64
71 64 230 l0 141 -37 0 -38 0 0 -141 0 -141 -29 -25 c-24 -20 -36 -24 -65 -19
-64 10 -71 30 -71 187 l0 139 -35 0 -35 0 0 -140z"/>
<path d="M7720 1154 l0 -196 98 4 c80 3 105 8 141 28 82 46 115 162 72 255
-36 79 -91 105 -221 105 l-90 0 0 -196z m185 122 c47 -20 68 -65 63 -134 -4
-47 -10 -60 -37 -84 -26 -23 -40 -28 -86 -28 l-55 0 0 130 0 130 40 0 c22 0
56 -6 75 -14z"/>
<path d="M8210 1155 l0 -195 40 0 40 0 0 195 0 195 -40 0 -40 0 0 -195z"/>
<path d="M8440 1320 l0 -30 60 0 60 0 0 -165 0 -165 35 0 35 0 0 165 0 165 55
0 c54 0 55 0 55 30 l0 30 -150 0 -150 0 0 -30z"/>
</g>
</svg>
